<svg version="1" xmlns="http://www.w3.org/2000/svg" width="518.667" height="518.667" viewBox="0 0 389.000000 389.000000"><path d="M0 194.5V389h389V0H0v194.5zM223.9 22.4c38.8 7.2 70.1 24 96.8 51.9 24.1 25.3 39.5 55.8 45.9 91.2 2.5 13.9 2.5 44.1 0 58-9.9 54.4-42.4 99.4-90.8 125.5-36.6 19.7-84 25.2-125.3 14.5C102 350.9 60.8 317.4 38 272.1 13.9 224 13.9 165 38 116.9 64.1 65 113.2 29.7 171 21.4c12.1-1.7 41.3-1.2 52.9 1z"/><path d="M179.5 25.6c-10.4 1.2-19.2 2.9-28 5.1-10.8 2.8-29.7 10-35.4 13.5l-3.4 2.2 2.4 1.5c20.4 13.4 40.3 33.4 52.6 52.7l4.8 7.6 4.1-8.5c9.4-20 15.4-45.6 15.4-66.3V25l-4.7.1c-2.7.1-6.1.4-7.8.5zM198.6 25.8c-1.1 1.8 1.2 26.4 3.5 37.3 1.1 5.7 3.6 14.6 5.4 19.8 3.5 10 9.1 23.1 9.9 23.1.2 0 1.5-1.9 2.9-4.3 4.5-7.7 16.2-22 25.5-31.1 7.6-7.5 22.3-19.3 28.8-23.2 1.7-1 .9-1.6-6.1-5.1-14.1-7.1-33-13.1-48.5-15.2-14.2-2-20.7-2.3-21.4-1.3zM193.2 59.8c-2.6 14.2-7.6 29.7-13.8 43.1l-4.5 9.6 4 8.6c5.8 12.4 10 25.4 13.2 40.9 1.5 7.4 2.8 12.2 2.8 10.7.3-11.1 8.4-38.4 15.8-53.3l4.5-9.1-3.2-6.3c-7.1-14-12.8-32.3-15.3-48.8l-1.2-7.7-2.3 12.3z"/><path d="M102.4 52.1c-19.5 12.5-42.3 36-53.3 55.2l-3.3 5.7 3.3 5.3c12.1 19.7 30.8 38.8 51.4 52.4l6.9 4.6 4.1-2.3c18.8-10.7 44.5-36.6 56-56.3l2.7-4.7-5.3-8.5c-7.7-12.2-20.7-27.4-31.1-36.3C124.4 59 110.4 49 108.5 49c-.6 0-3.3 1.4-6.1 3.1zM272.4 53.6c-13.2 8.9-27.1 21.6-37.1 33.9-5.5 6.7-15.3 21.5-15.3 23 0 2.4 14.1 22.4 22.3 31.7 8.4 9.4 23.3 22.2 33.4 28.6l5.2 3.3 4.3-2.7c19.4-12.1 41.1-34.5 53.7-55.2l3.2-5.4-6.5-9.8c-8-12-19.7-25.3-29.9-34.2-8.2-7-23.5-17.8-25.3-17.8-.5 0-4.1 2.1-8 4.6z"/><path d="M213.1 123.1c-8.4 18.3-13.5 38-15.1 59.2-.5 6.7-1 13.1-1 14.1 0 1.8.6 1.9 9.9 1.3 19.6-1.3 41-7.1 59.5-16l10.7-5.2-9.1-6.4c-16.8-11.8-33.6-29.3-44.9-46.6-2.9-4.4-5.4-8.2-5.7-8.4-.2-.2-2.1 3.4-4.3 8zM338.5 123.8c-12.9 19.9-26.3 33.1-51.9 51.4-1.7 1.2-.8 1.9 9 6.5 19.2 9.1 39.3 14.6 59.1 15.9l9.6.7-.7-11.1c-.9-15.4-3.8-31.8-7.9-44.3-3.6-10.8-10.5-26.9-11.6-26.9-.3 0-2.8 3.5-5.6 7.8zM38.7 127.7c-8.2 19.4-12.3 37.6-13.4 58.2l-.6 12.4 10.9-.7c19.1-1.1 40-6.6 58.2-15.1 5-2.4 9.2-4.6 9.2-4.9 0-.3-4.1-3.3-9.1-6.7-16-11-35.2-30.7-45.9-47.3-2.4-3.6-4.4-6.6-4.5-6.6-.2 0-2.3 4.8-4.8 10.7zM169.5 121c-12.3 19.6-32.1 39.9-50.8 52-7.8 5-8 4.7 5 10.4 18.6 8.2 38.9 13.3 57.2 14.3l10.4.6-.6-13.9c-1-21-6.1-41.9-14.6-59.9l-3.7-8-2.9 4.5zM269 184.6c-11.8 6-27.3 11.4-40.6 14l-8.9 1.8 8.5 1.7c15.6 3.1 28.4 7.6 44.2 15.4l8.6 4.4 10.9-5.4c12.8-6.3 28.5-11.7 41.5-14.3l9.3-1.8-9-1.8c-12.7-2.4-28.1-7.7-41.2-14.1-6.2-3-11.6-5.4-12-5.4-.4.1-5.5 2.6-11.3 5.5zM97 185.1c-11.2 5.6-27 11-39.4 13.5l-8.9 1.7 8.9 1.9c12.8 2.6 26.3 7.2 39 13.2l11.1 5.3 9.7-4.7c12.2-5.9 24.9-10.3 38.6-13.4 10.1-2.3 10.3-2.4 6.5-3.1-14.7-2.6-33-8.7-46.3-15.4-4.5-2.2-8.5-4-8.9-3.9-.5.1-5.1 2.3-10.3 4.9zM25.5 209.1c1 10.2 3.4 22.7 6.1 32.4 2.7 9.6 10 27.8 13.4 33.3l2.1 3.4 4.8-6.9c11.1-15.7 26.9-31.1 42.8-42 4.5-3.1 8-6 7.6-6.6-.8-1.4-14.1-7.3-25.2-11.1-13.3-4.6-28.5-7.7-41.4-8.3l-10.8-.6.6 6.4zM164.5 204.9c-16.9 3-32.9 8.2-46.5 15.1l-6.2 3.2 6.8 4.5c15.9 10.6 32.2 26.2 43.3 41.3 3.5 4.7 6.6 8.6 7 8.8 1.2.4 10.7-20.3 14-30.5 3.3-10.2 6.6-25.9 7.7-37.1l.7-7.2-8.4.1c-4.6 0-12.9.9-18.4 1.8zM198 207.2c0 7.8 3.8 27.1 7.6 39 3.8 12.1 13.8 33.8 15.4 33.8.6 0 1-.4 1-.9 0-1.5 11.7-16.9 18.3-24 8.7-9.3 18.6-18.1 28.4-25l8.4-6-9.3-4.5c-19.5-9.3-40.9-15.1-60-16.3l-9.8-.6v4.5zM341.5 204.6c-15.9 2.4-34.1 8.3-49 15.7-7 3.5-7.8 4.1-6.2 5.1 14.5 8.7 38.3 31.3 48.5 46l6.2 8.9 5.5-11.4c9.1-19.1 14.8-39.6 16.8-61.2l.5-4.7-6.7.1c-3.6.1-10.6.7-15.6 1.5zM193.5 218.5c-2.8 18.8-8.5 37.2-16.4 53l-5.7 11.3 4.3 7.9c8.6 15.6 15.7 37 18.4 55.3l1.2 8.5 1.9-11.5c2.5-14.5 9-34.6 15.8-48l5.2-10.4-5.2-10.3c-9.1-18.5-14-33.1-17.3-52.8l-1.4-8-.8 5z"/><path d="M98.9 231.1c-11.7 8.1-18.8 14.1-27.6 23.2C62 263.9 50 279.7 50 282.1c0 3.2 12.6 19.5 24 31 11 11.2 24.9 22.5 31.7 25.7 3.2 1.5 3.3 1.5 10.1-3.1 17.1-11.3 32.9-26.8 45.3-44.6l5.8-8.4-5-7.2c-7.4-10.8-17-21.5-26.7-30.1-9.2-8.1-25.2-19.4-27.5-19.4-.7 0-4.7 2.3-8.8 5.1zM274.4 230.8c-15 9.7-31.2 25.1-42.4 40.3-10.1 13.7-10 12.3-2.7 22.5 11 15.6 36.5 39.4 48.4 45.2l3.3 1.6 8.3-5.7c11.1-7.5 21.9-16.8 30.3-26.2 7.6-8.4 18.4-23.1 18.4-24.9-.1-1.8-12.2-18.3-19.5-26.3-3.7-4-10.3-10.4-14.8-14.2-7.8-6.5-21.3-16.1-22.7-16.1-.4 0-3.3 1.7-6.6 3.8z"/><path d="M162.5 295.7c-10.7 15.4-30.6 34.4-47.4 45.4l-2.4 1.5 3.4 2.2c1.9 1.2 8.6 4.2 14.8 6.7 17.1 6.8 33.3 10.6 52 12l9.4.8-.7-7.4c-1.1-11.3-4.4-27-7.7-37.2-3-9.1-13.7-32.7-14.8-32.6-.3 0-3.3 3.9-6.6 8.6zM215.5 298.2c-8.4 17.8-14.6 40.1-16.1 57.9l-.7 8.2 6.9-.7c25.3-2.5 44.6-7.6 62.9-16.9 7.1-3.5 7.8-4.1 6.1-5.1-1.1-.6-6.3-4.3-11.5-8.2-12.1-9-26.1-23-34.8-35-3.8-5.1-7.2-9.3-7.6-9.3-.5-.1-2.8 4.1-5.2 9.1z"/></svg>