<svg viewBox="0 0 100 100" class="icon icon--phone"><path d="M43.027 56.83c-.04-.04-3.602-5.208-4.936-6.97-2.767-3.665-4.2-8.812-4.528-9.207 3.89-2.713 11.497-6.12 11.924-11.01C46.026 23.327 35.324 10.12 33.27 10c-5.614.06-15.892 9.563-17.11 12.436-2.265 5.938-1.142 11.464 2.748 19.464 4.956 11.9 23.364 34.474 33.895 41.562 6.97 5.347 12.06 7.446 18.138 6.18 2.827-.535 13.03-8.91 14.056-14.574.25-2.1-11.614-16.02-17.75-16.573-4.764-.438-9.33 6.69-12.604 10.178-.328-.416-3.117-2.594-6.115-6.042-1.473-1.662-3.797-3.86-5.5-5.8z"/></svg>