<svg width="241" height="139" viewBox="0 0 241 139" xmlns="http://www.w3.org/2000/svg"><g fill="none" fill-rule="evenodd"><path d="M240.938 131.496c0 4.144-3.36 7.504-7.506 7.504H7.506C3.36 139 0 135.64 0 131.496V8.326C0 4.18 3.36.82 7.506.82h225.926c4.145 0 7.506 3.36 7.506 7.505v123.17" fill="#004C7F"/><path d="M50.578 13.933c3.144 0 5.69 2.496 5.69 5.584 0 3.08-2.546 5.58-5.69 5.58-3.137 0-5.684-2.5-5.684-5.58 0-3.088 2.547-5.584 5.684-5.584M71.5 72.267l-.098-3.247-.042-1.32c-.23-4.06-.032-4.67 1.186-7.61 1.2-3.602 2.513-7.342 3.713-10.947.55-2.11 1.83-2.742-.688-6.76-2.652-4.963-5.567-9.866-8.22-14.828-2.18-3.795-6.77-.66-5.085 1.87 2.155 4.787 3.3 8.44 5.452 13.233 1.772 3.59 2.005 5.123-.134 5.807-2.305.742-3.282-.133-4.4-3.152-1.156-2.786-1.735-4.23-2.887-7.01-.878-1.977-2.02-1.92-3.54-1.363-1.258.47-.93 1.705-.483 3.23.808 1.947 1.306 3.32 2.066 5.236l1.244 3.133c.828 2.092.794 3.91.46 5.172-.695 4.87-1.81 12.383-2.422 17.18l-.162 9.924.143.192c8.1-1.282 13.895-4.71 13.895-8.74zM51.385 81.224v-25.97c0-.357-.325-.646-.734-.646-.404 0-.73.29-.73.647v25.97s.662.43 1.465 0" fill="#FFF"/><path d="M28.773 60.577c-8.67 3.4-14.21 8.543-14.21 14.294 0 10.24 17.513 18.536 39.113 18.536 3.64 0 7.162-.234 10.504-.674l-.955.176c-4.176.72-8.683 1.113-13.384 1.113-21.602 0-39.113-8.298-39.113-18.54 0-6.51 7.117-12.206 17.832-15.514l-.06-.205c-1.18-3.486-2.45-7.09-3.626-10.566-.552-2.114-1.846-2.75.7-6.77 2.67-4.96 5.616-9.86 8.278-14.82 2.21-3.802 6.834-.67 5.13 1.866-2.166 4.787-3.333 8.44-5.5 13.23-1.786 3.59-2.027 5.122.132 5.804 2.327.744 3.314-.13 4.44-3.15 1.166-2.782 1.756-4.222 2.92-7.008.882-1.975 2.034-1.922 3.57-1.357 1.262.464.938 1.7.486 3.223-.818 1.944-1.323 3.32-2.09 5.236l-1.25 3.134c-.834 2.093-.8 3.91-.465 5.17.7 4.868 1.824 12.306 2.444 17.11l.14 9.952-.045.225c-8.21-1.253-14.107-4.71-14.107-8.773l.106-2.838c.033-.982.052-1.683.052-1.683.214-3.785.06-4.57-.95-7.034l-.093-.136M104.954 124.695v-17.072l-5.882 12.445h-2.87l-6.025-12.445v17.072h-3.874v-25.54h3.874l7.46 15.89 7.317-15.89h3.873v25.54h-3.873M114.745 124.695v-25.54h16.32v3.48h-12.446v7.462h10.615v3.442H118.62v7.675h12.444v3.48h-16.32M154.307 124.695v-17.072l-5.883 12.445h-2.868l-6.026-12.445v17.072h-3.874v-25.54h3.874l7.46 15.89 7.317-15.89h3.873v25.54h-3.873M174.07 113.43h-6.1v7.785h6.1c2.69 0 4.195-1.65 4.195-3.91 0-2.26-1.506-3.874-4.196-3.874zm-.36-10.796h-5.74v7.32h5.74c2.477 0 4.16-1.294 4.16-3.66 0-2.37-1.683-3.66-4.16-3.66zm.718 22.06h-10.33V99.157h9.934c4.738 0 7.712 2.69 7.712 6.994 0 2.762-1.72 4.736-3.442 5.416 1.973.79 3.837 2.692 3.837 5.918 0 4.697-3.193 7.21-7.712 7.21zM187.16 124.695v-25.54h16.32v3.48h-12.446v7.462h10.615v3.442h-10.616v7.675h12.445v3.48h-16.32M217.684 102.634h-5.74v8h5.74c2.583 0 4.34-1.472 4.34-3.982 0-2.512-1.757-4.018-4.34-4.018zm4.483 22.06l-5.38-10.76h-4.843v10.76h-3.872V99.157h9.9c4.84 0 7.924 3.12 7.924 7.46 0 3.66-2.223 5.99-5.092 6.78l5.883 11.3h-4.52zM89.05 91.2c-.603 0-1.155-.226-1.57-.638-.576-.576-.576-1.185-.576-2.484 0-1.3 0-1.902.577-2.48.415-.415.967-.633 1.57-.633 1.102 0 1.92.668 2.13 1.822h-.675c-.163-.748-.688-1.24-1.455-1.24-.405 0-.793.152-1.06.43-.387.396-.43.818-.43 2.1 0 1.286.043 1.708.43 2.104.267.277.655.43 1.06.43.767 0 1.31-.49 1.472-1.24h.657c-.2 1.157-1.036 1.83-2.13 1.83M95.055 91.148v-2.62c0-.743-.396-1.12-1.034-1.12-.636 0-1.058.387-1.058 1.12v2.62h-.62V85.01h.62v2.365c.31-.358.714-.52 1.19-.52.955 0 1.525.612 1.525 1.567v2.726h-.622M97.01 86.906h.623v4.242h-.622v-4.242zm-.032-1.9h.697v.693h-.697v-.694zM101.39 87.718c-.234-.234-.406-.31-.733-.31-.62 0-1.017.488-1.017 1.137v2.603h-.62v-4.242h.62v.518c.233-.35.7-.57 1.19-.57.405 0 .716.095 1.017.398l-.456.466M104.468 87.718c-.2-.2-.475-.31-.777-.31-.3 0-.567.11-.765.31-.31.31-.345.834-.345 1.31 0 .474.034 1 .345 1.31.198.2.465.308.766.308.303 0 .578-.11.778-.308.31-.31.336-.836.336-1.31 0-.476-.026-1-.336-1.31zm.44 3c-.296.29-.7.48-1.217.48-.514 0-.92-.19-1.213-.48-.432-.443-.518-1.037-.518-1.69 0-.657.085-1.25.517-1.688.293-.293.7-.485 1.214-.485.518 0 .922.192 1.218.485.43.437.515 1.03.515 1.687 0 .654-.084 1.248-.515 1.69zM108.268 87.408c-.923 0-1.07.79-1.07 1.62 0 .83.147 1.618 1.07 1.618.922 0 1.06-.79 1.06-1.62 0-.827-.138-1.618-1.06-1.618zm1.163 3.42c-.223.226-.603.37-1.033.37-.466 0-.855-.11-1.2-.552v2.4h-.62v-6.14h.62v.502c.345-.45.734-.553 1.2-.553.43 0 .81.145 1.034.37.432.43.518 1.138.518 1.802 0 .664-.086 1.37-.517 1.8zM113.473 87.718c-.233-.234-.405-.31-.733-.31-.622 0-1.017.488-1.017 1.137v2.603h-.62v-4.242h.62v.518c.234-.35.698-.57 1.19-.57.404 0 .714.095 1.015.398l-.455.466M116.875 89.19h-1.188c-.64 0-.95.255-.95.75 0 .493.303.724.976.724.362 0 .68-.026.947-.285.146-.136.215-.376.215-.732v-.46zm0 1.958v-.408c-.344.348-.653.46-1.223.46-.587 0-.93-.112-1.197-.388-.207-.21-.32-.525-.32-.86 0-.743.517-1.226 1.467-1.226h1.273v-.406c0-.62-.31-.93-1.084-.93-.542 0-.82.127-1.07.483l-.42-.39c.377-.49.808-.628 1.5-.628 1.135 0 1.697.492 1.697 1.412v2.88h-.622zM120.477 91.2c-1.068 0-1.88-.724-1.88-2.173 0-1.45.812-2.172 1.88-2.172.586 0 .958.155 1.397.63l-.423.396c-.316-.35-.567-.472-.973-.472-.413 0-.757.162-.98.482-.198.276-.278.604-.278 1.137 0 .535.08.86.276 1.14.224.315.568.48.98.48.407 0 .658-.126.975-.48l.424.403c-.44.475-.81.63-1.397.63M124.07 91.148c-.722 0-1.085-.51-1.085-1.138v-2.602h-.534v-.477h.535v-1.323h.62v1.324h.906v.478h-.905v2.586c0 .385.183.617.58.617h.326v.538h-.44M127.784 87.718c-.197-.2-.473-.31-.774-.31-.302 0-.568.11-.767.31-.31.31-.345.834-.345 1.31 0 .474.034 1 .345 1.31.2.2.465.308.767.308.3 0 .577-.11.774-.308.31-.31.336-.836.336-1.31 0-.476-.025-1-.336-1.31zm.44 3c-.293.29-.698.48-1.214.48s-.922-.19-1.215-.48c-.432-.443-.518-1.037-.518-1.69 0-.657.086-1.25.518-1.688.293-.293.7-.485 1.215-.485.516 0 .92.192 1.214.485.43.437.517 1.03.517 1.687 0 .654-.087 1.248-.516 1.69zM132.267 87.718c-.234-.234-.407-.31-.734-.31-.62 0-1.016.488-1.016 1.137v2.603h-.62v-4.242h.62v.518c.233-.35.698-.57 1.19-.57.405 0 .715.095 1.017.398l-.457.466M134.604 91.2c-.717 0-1.28-.163-1.745-.612l.416-.414c.333.353.79.49 1.314.49.7 0 1.132-.248 1.132-.748 0-.37-.216-.58-.705-.623l-.7-.06c-.828-.07-1.267-.438-1.267-1.138 0-.775.654-1.24 1.56-1.24.604 0 1.146.145 1.527.453l-.408.41c-.303-.234-.688-.337-1.126-.337-.623 0-.95.268-.95.698 0 .363.206.58.74.623l.682.058c.738.068 1.25.353 1.25 1.148 0 .82-.7 1.293-1.722 1.293M136.937 86.416V85.01h.75v.726l-.75.68M142.89 85.95l-1.154 3.24h2.29l-1.136-3.24zm1.816 5.198l-.49-1.387h-2.68l-.49 1.388h-.697l2.255-6.137h.55l2.25 6.138h-.7zM147.45 91.2c-.718 0-1.277-.163-1.74-.612l.41-.414c.338.353.795.49 1.32.49.7 0 1.13-.248 1.13-.748 0-.37-.217-.58-.706-.623l-.7-.06c-.827-.07-1.266-.438-1.266-1.138 0-.775.654-1.24 1.56-1.24.604 0 1.144.145 1.523.453l-.403.41c-.3-.234-.687-.337-1.128-.337-.62 0-.948.268-.948.698 0 .363.204.58.74.623l.68.058c.742.068 1.25.353 1.25 1.148 0 .82-.696 1.293-1.723 1.293M151.41 91.2c-.714 0-1.274-.163-1.74-.612l.416-.414c.336.353.793.49 1.32.49.694 0 1.126-.248 1.126-.748 0-.37-.217-.58-.707-.623l-.696-.06c-.83-.07-1.272-.438-1.272-1.138 0-.775.66-1.24 1.562-1.24.602 0 1.145.145 1.524.453l-.402.41c-.304-.234-.69-.337-1.132-.337-.618 0-.945.268-.945.698 0 .363.207.58.74.623l.68.058c.742.068 1.252.353 1.252 1.148 0 .82-.7 1.293-1.727 1.293M156.46 87.718c-.194-.2-.473-.31-.773-.31-.3 0-.57.11-.766.31-.308.31-.345.834-.345 1.31 0 .474.037 1 .346 1.31.198.2.466.308.767.308.3 0 .58-.11.774-.308.312-.31.34-.836.34-1.31 0-.476-.028-1-.34-1.31zm.44 3c-.293.29-.698.48-1.213.48-.518 0-.92-.19-1.217-.48-.43-.443-.517-1.037-.517-1.69 0-.657.088-1.25.517-1.688.297-.293.7-.485 1.217-.485.515 0 .92.192 1.212.485.433.437.517 1.03.517 1.687 0 .654-.084 1.248-.518 1.69zM160.222 91.2c-1.07 0-1.884-.724-1.884-2.173 0-1.45.813-2.172 1.884-2.172.586 0 .954.155 1.393.63l-.423.396c-.317-.35-.568-.472-.97-.472-.416 0-.762.162-.986.482-.197.276-.277.604-.277 1.137 0 .535.08.86.276 1.14.224.315.57.48.986.48.402 0 .653-.126.97-.48l.423.403c-.44.475-.807.63-1.393.63M162.62 86.906h.623v4.242h-.622v-4.242zm-.03-1.9h.695v.693h-.695v-.694zM167.036 89.19h-1.19c-.638 0-.95.255-.95.75 0 .493.304.724.974.724.365 0 .683-.026.95-.285.146-.136.216-.376.216-.732v-.46zm0 1.958v-.408c-.345.348-.657.46-1.225.46-.583 0-.93-.112-1.2-.388-.2-.21-.317-.525-.317-.86 0-.743.52-1.226 1.47-1.226h1.273v-.406c0-.62-.312-.93-1.09-.93-.542 0-.816.127-1.065.483l-.422-.39c.38-.49.81-.628 1.5-.628 1.14 0 1.698.492 1.698 1.412v2.88h-.62zM170.18 91.148c-.723 0-1.088-.51-1.088-1.138v-2.602h-.53v-.477h.53v-1.323h.624v1.324h.903v.478h-.904v2.586c0 .385.18.617.576.617h.327v.538h-.44M171.68 86.906h.618v4.242h-.618v-4.242zm-.035-1.9h.697v.693h-.697v-.694zM175.97 87.718c-.198-.2-.472-.31-.774-.31-.3 0-.57.11-.767.31-.313.31-.348.834-.348 1.31 0 .474.035 1 .347 1.31.197.2.466.308.766.308.302 0 .576-.11.775-.308.31-.31.34-.836.34-1.31 0-.476-.03-1-.34-1.31zm.44 3c-.294.29-.696.48-1.214.48-.516 0-.922-.19-1.213-.48-.432-.443-.516-1.037-.516-1.69 0-.657.084-1.25.516-1.688.29-.293.697-.485 1.213-.485.518 0 .92.192 1.215.485.432.437.52 1.03.52 1.687 0 .654-.088 1.248-.52 1.69zM180.798 91.148v-2.61c0-.753-.405-1.13-1.045-1.13-.638 0-1.05.387-1.05 1.13v2.61h-.623v-4.242h.622v.47c.3-.35.716-.52 1.19-.52.46 0 .83.136 1.085.396.303.29.44.69.44 1.18v2.716h-.62M187.01 87.718c-.2-.2-.473-.31-.776-.31-.3 0-.568.11-.766.31-.312.31-.344.834-.344 1.31 0 .474.032 1 .344 1.31.198.2.465.308.766.308.303 0 .576-.11.777-.308.31-.31.335-.836.335-1.31 0-.476-.024-1-.334-1.31zm.437 3c-.292.29-.695.48-1.213.48-.517 0-.92-.19-1.214-.48-.43-.443-.518-1.037-.518-1.69 0-.657.09-1.25.518-1.688.293-.293.697-.485 1.214-.485.518 0 .92.192 1.213.485.432.437.518 1.03.518 1.687 0 .654-.086 1.248-.518 1.69zM189.88 87.408v3.74h-.62v-3.74h-.543v-.477h.542v-.8c0-.626.352-1.136 1.075-1.136h.448v.533h-.336c-.394 0-.567.234-.567.623v.78h.903v.478h-.903M195.5 85.95l-1.16 3.24h2.296l-1.137-3.24zm1.815 5.198l-.49-1.387h-2.68l-.49 1.388h-.698l2.257-6.137h.552l2.25 6.138h-.7zM201.402 91.148v-.474c-.3.343-.725.525-1.198.525-.458 0-.835-.138-1.096-.398-.3-.292-.432-.697-.432-1.187v-2.71h.62v2.614c0 .75.398 1.126 1.037 1.126.64 0 1.06-.385 1.06-1.127v-2.614h.622v4.242h-.613M204.727 91.2c-.714 0-1.277-.163-1.74-.612l.412-.414c.338.353.794.49 1.32.49.695 0 1.128-.248 1.128-.748 0-.37-.217-.58-.706-.623l-.7-.06c-.826-.07-1.263-.438-1.263-1.138 0-.775.65-1.24 1.555-1.24.606 0 1.15.145 1.527.453l-.404.41c-.303-.234-.69-.337-1.13-.337-.622 0-.948.268-.948.698 0 .363.21.58.74.623l.68.058c.74.068 1.25.353 1.25 1.148 0 .82-.696 1.293-1.723 1.293M208.598 91.148c-.726 0-1.086-.51-1.086-1.138v-2.602h-.535v-.477h.535v-1.323h.616v1.324h.907v.478h-.907v2.586c0 .385.185.617.58.617h.327v.538h-.437M212.466 87.718c-.23-.234-.404-.31-.732-.31-.623 0-1.016.488-1.016 1.137v2.603h-.62v-4.242h.62v.518c.23-.35.697-.57 1.187-.57.406 0 .717.095 1.016.398l-.454.466M215.868 89.19h-1.19c-.637 0-.948.255-.948.75 0 .493.302.724.978.724.36 0 .68-.026.947-.285.146-.136.213-.376.213-.732v-.46zm0 1.958v-.408c-.342.348-.653.46-1.223.46-.585 0-.93-.112-1.196-.388-.21-.21-.322-.525-.322-.86 0-.743.52-1.226 1.466-1.226h1.274v-.406c0-.62-.31-.93-1.085-.93-.543 0-.82.127-1.068.483l-.423-.39c.382-.49.812-.628 1.5-.628 1.138 0 1.698.492 1.698 1.412v2.88h-.622zM218.887 91.148c-.74 0-1.077-.484-1.077-1.13v-5.007h.62v4.984c0 .412.137.617.566.617h.34v.538h-.45M220.212 86.906h.622v4.242h-.622v-4.242zm-.034-1.9h.697v.693h-.697v-.694zM224.625 89.19h-1.19c-.638 0-.948.255-.948.75 0 .493.302.724.975.724.362 0 .68-.026.946-.285.147-.136.217-.376.217-.732v-.46zm0 1.958v-.408c-.344.348-.653.46-1.223.46-.587 0-.93-.112-1.2-.388-.208-.21-.317-.525-.317-.86 0-.743.515-1.226 1.464-1.226h1.275v-.406c0-.62-.312-.93-1.087-.93-.54 0-.818.127-1.066.483l-.425-.39c.38-.49.815-.628 1.503-.628 1.133 0 1.693.492 1.693 1.412v2.88h-.618zM152.732 37.144l-7.495 21.58h14.754l-7.258-21.58zm13.84 41.83l-3.5-10.504h-21.086l-3.58 10.504h-12.082l21.584-59.33h9.077l21.668 59.33h-12.08z" fill="#FFF"/><path d="M199.595 37.144l-7.495 21.58h14.746l-7.25-21.58zm13.837 41.83l-3.498-10.504H188.85l-3.583 10.504h-12.082l21.585-59.33h9.076l21.664 59.33h-12.078zM105.787 79.476c-6.5 0-11.83-2.338-16-6.506-5.998-5.992-5.83-13.41-5.83-23.663 0-10.246-.168-17.66 5.83-23.668 4.17-4.158 9.5-6.5 16-6.5 11.08 0 19.746 6.342 21.828 18.755h-11.742c-1.17-4.75-4.17-8.42-10-8.42-3.17 0-5.747 1.173-7.42 3.088-2.246 2.5-2.915 5.332-2.915 16.744 0 11.42.67 14.25 2.914 16.752 1.674 1.916 4.252 3.078 7.422 3.078 5.83 0 8.83-3.665 10-8.412h11.74c-2.08 12.41-10.83 18.75-21.827 18.75" fill="#FFF"/></g></svg>