<svg width="470" height="468" viewBox="0 0 470 468" xmlns="http://www.w3.org/2000/svg" xmlns:xlink="http://www.w3.org/1999/xlink"><defs><path id="a" d="M.98.304h516.836v510H.98z"/><path id="b" d="M259.89 32.886h2.587c0-2.686-.16-5.365-.24-7.893l-.09-2.5h-2.5c-42.748 0-82.736 11.592-117.146 31.655l-3.83 2.232 3.838 2.23c36.046 20.94 65.83 51.32 85.74 87.935l2.235 4.112 2.3-4.077c18.933-33.59 29.708-72.396 29.708-113.694H257.3c0 40.403-10.526 78.326-29.04 111.166l2.258 1.267 2.278-1.234c-20.37-37.454-50.832-68.524-87.686-89.938l-1.297 2.232 1.304 2.23c33.658-19.62 72.734-30.95 114.537-30.95v-2.584l-2.588.082c.082 2.625.24 5.256.24 7.72h2.583v.008z"/><path id="c" d="M143.8 232.667l1.29-2.238c-35.79-20.526-65.424-50.5-85.663-86.46l-2.292-4.07-2.236 4.097c-18.1 33.08-28.365 70.962-28.365 111.344 0 2.688.166 5.367.25 7.895l.082 2.493h2.505c42.155 0 81.64-11.254 115.718-30.815l3.9-2.24-3.9-2.237-1.29 2.23-1.292-2.237c-33.326 19.126-71.906 30.125-113.136 30.125v2.583l2.59-.083c-.09-2.624-.25-5.255-.25-7.72 0-39.5 10.037-76.515 27.73-108.866l-2.272-1.24-2.258 1.267c20.702 36.773 50.99 67.416 87.596 88.41l1.29-2.24-1.29-2.238 1.29 2.237z"/><path id="d" d="M230.51 145.312l-2.256-1.26c-20.156 35.96-49.866 65.845-85.74 86.377l-3.913 2.237 3.915 2.24c34.155 19.56 73.638 30.814 115.793 30.814h2.506l.083-2.492c.082-2.52.248-5.207.248-7.893 0-40.3-10.264-78.18-28.363-111.256l-2.244-4.106-2.284 4.078 2.257 1.26-2.27 1.24c17.69 32.344 27.728 69.365 27.728 108.783 0 2.465-.16 5.096-.25 7.72l2.59.083v-2.583c-41.23 0-79.81-11-113.218-30.126l-1.29 2.237 1.29 2.24c36.688-20.994 67.066-51.555 87.685-88.334l-2.264-1.26-2.27 1.24 2.27-1.24z"/><path id="e" d="M225.934 373.16l-2.222-1.315c-19.742 33.157-47.81 60.748-81.135 80.213l-3.817 2.224 3.824 2.225c34.41 20.07 74.397 31.58 117.056 31.662l2.685.006-.09-2.68c-1.435-41.552-13.64-80.35-34.085-113.686l-2.243-3.657-2.19 3.685 2.217 1.322-2.21 1.343c19.992 32.593 31.926 70.516 33.328 111.173l2.588-.09v-2.582c-41.727-.083-80.796-11.33-114.454-30.946l-1.304 2.224 1.304 2.225c34.08-19.898 62.767-48.103 82.97-82.03l-2.222-1.317-2.21 1.343 2.21-1.343z"/><path id="f" d="M225.934 373.16l2.223 1.33c19.61-32.675 31.394-70.64 32.74-111.27l.09-2.672H258.3c-42.147.09-81.63 11.337-115.785 30.822l-3.92 2.24 3.92 2.244c33.243 19.05 61.227 46.147 81.217 78.663l2.237 3.63 2.194-3.65-2.23-1.337 2.21-1.35c-20.447-33.253-49.06-60.962-83.054-80.44l-1.29 2.24 1.283 2.237c33.416-19.05 71.995-30.043 113.232-30.133l-.007-2.583-2.59-.08c-1.31 39.74-12.83 76.836-32.006 108.774l2.222 1.336 2.21-1.35-2.21 1.35z"/><path id="g" d="M29.38 263.138l-2.59.09c1.347 40.63 13.13 78.594 32.74 111.344l2.19 3.665 2.235-3.637c19.99-32.516 47.974-59.695 81.135-78.746l3.907-2.245-3.907-2.233c-34.08-19.478-73.556-30.732-115.704-30.822H26.7l.09 2.673 2.59-.09-.008 2.583c41.237.09 79.817 11.083 113.143 30.134l1.29-2.238-1.29-2.24c-33.913 19.48-62.518 47.27-82.97 80.517l2.208 1.35 2.223-1.322c-19.17-32.02-30.69-69.123-32.008-108.865l-2.59.083-.006 2.583.007-2.582z"/><path id="h" d="M290.682 142.902l-2.25-1.268c-18.942 33.59-29.717 72.396-29.717 113.7 0 2.632.083 5.235.166 7.804l.09 2.528 2.534-.028c42.238-.502 81.797-12.253 115.793-32.323l3.762-2.218-3.756-2.23c-35.39-20.94-64.685-51.08-84.344-87.198l-2.237-4.106-2.292 4.07 2.252 1.268-2.278 1.232c20.12 36.952 50.072 67.76 86.256 89.174l1.32-2.225-1.32-2.217c-33.243 19.622-71.905 31.11-113.218 31.607l.034 2.582 2.59-.082c-.09-2.57-.167-5.118-.167-7.638 0-40.403 10.526-78.326 29.04-111.166l-2.258-1.268-2.278 1.232 2.278-1.232z"/><path id="i" d="M295.258 375.488l-2.215-1.33c-19.61 32.758-31.304 70.723-32.65 111.263l-.097 2.708 2.72-.034c41.637-.586 80.617-12.006 114.28-31.573l3.84-2.23-3.846-2.232c-32.657-18.962-60.15-45.81-79.816-77.913l-2.23-3.643-2.188 3.664 2.202 1.322-2.202 1.343c20.108 32.84 48.21 60.288 81.625 79.684l1.3-2.232-1.306-2.23c-32.912 19.132-70.994 30.297-111.74 30.87l.04 2.582 2.59.09c1.303-39.673 12.748-76.77 31.91-108.79l-2.216-1.316-2.202 1.343 2.202-1.342z"/><path id="j" d="M375.98 295.193l-1.32 2.218c32.83 19.458 60.316 46.802 79.816 79.477l2.19 3.67 2.235-3.636c20.454-33.252 32.734-72.057 34.17-113.61l.09-2.706-2.713.034c-42.238.585-81.798 12.253-115.794 32.323l-3.755 2.22 3.755 2.224 1.326-2.21 1.317 2.217c33.237-19.622 71.9-31.035 113.22-31.606l-.036-2.583-2.587-.09c-1.395 40.645-13.406 78.568-33.403 111.084l2.202 1.35 2.223-1.315c-19.95-33.434-48.057-61.384-81.625-81.282l-1.31 2.225 1.317 2.218-1.318-2.217z"/><path id="k" d="M375.98 295.193l1.317-2.225c-34.003-20.07-73.555-31.738-115.793-32.323l-2.713-.035.09 2.707c1.437 41.553 13.717 80.275 34.17 113.52l2.236 3.638 2.18-3.664c19.508-32.584 47.078-59.935 79.824-79.392l3.748-2.232-3.748-2.21-1.31 2.217-1.32-2.218c-33.492 19.898-61.682 47.848-81.617 81.184l2.215 1.328 2.202-1.356c-19.99-32.51-32.008-70.35-33.402-110.994l-2.59.09-.033 2.583c41.32.572 79.982 11.985 113.218 31.608l1.326-2.225-1.32-2.218 1.32 2.218z"/><path id="l" d="M490.488 263.055l2.588.083c.083-2.57.166-5.166.166-7.803 0-41.388-10.858-80.193-29.792-113.783l-2.292-4.07-2.236 4.104c-19.666 36.125-48.878 66.34-84.262 87.28l-3.762 2.224 3.762 2.218c34.003 20.07 73.556 31.82 115.793 32.323l2.54.03.083-2.53-2.588-.075.034-2.582c-41.312-.496-79.974-11.985-113.218-31.607l-1.318 2.224 1.318 2.225c36.184-21.414 66.052-52.31 86.167-89.256l-2.27-1.234-2.257 1.267c18.513 32.84 29.13 70.756 29.13 111.242 0 2.513-.09 5.062-.167 7.638l2.582.082.034-2.582-.034 2.582z"/><path id="m" d="M290.682 142.902l2.257 1.26c19.906-35.547 49.202-65.108 84.426-85.55l3.83-2.225-3.83-2.24c-33.658-19.65-72.72-31.07-114.364-31.57l-2.533-.03-.084 2.53c-.083 2.458-.338 5.06-.338 7.802 0 40.292 10.264 78.18 28.356 111.254l2.243 4.105 2.285-4.078-2.25-1.26 2.27-1.24c-17.684-32.344-27.727-69.365-27.727-108.783 0-2.41.24-4.953.338-7.64l-2.59-.082-.033 2.583c40.733.497 78.905 11.655 111.81 30.864l1.305-2.23-1.298-2.233c-36.025 20.912-65.983 51.135-86.346 87.494l2.272 1.268 2.27-1.24-2.27 1.24z"/><path id="n" d="M490.633 255.293h-3.45c-.008 62.636-25.445 119.307-66.57 160.35-41.142 41.043-97.937 66.417-160.697 66.417-62.773 0-119.57-25.374-160.71-66.417-41.125-41.043-66.562-97.72-66.562-160.35 0-62.63 25.437-119.293 66.563-160.336 41.14-41.036 97.936-66.417 160.71-66.417 62.766 0 119.554 25.374 160.695 66.417 41.126 41.043 66.563 97.707 66.57 160.336h6.902C494.077 126.26 389.246 21.66 259.916 21.66c-129.336 0-234.168 104.6-234.174 233.633 0 129.046 104.838 233.655 234.174 233.655 129.323 0 234.16-104.61 234.168-233.655h-3.45z"/><path d="M255.793 263.54v.46H259v-4h-3.207v2.54h-.395v1h.395zM261 265h3.207v1H261v-1zm-5.396 0H259v1h-3.396v-1zm5.396-5h3.036v1H261v-1z" id="o"/></defs><g fill="none" fill-rule="evenodd"><g transform="translate(-25 -21)"><use xlink:href="#a"/><use xlink:href="#a"/><use xlink:href="#a"/><use xlink:href="#a"/><use xlink:href="#a"/><use xlink:href="#a"/><use xlink:href="#a"/></g><g transform="translate(-25 -21)"><use fill="#DBDFE1" xlink:href="#b"/><use xlink:href="#b"/><use xlink:href="#b"/></g><g transform="translate(-25 -21)"><use fill="#DBDFE1" xlink:href="#c"/><use xlink:href="#c"/><use xlink:href="#c"/></g><g transform="translate(-25 -21)"><use fill="#DBDFE1" xlink:href="#d"/><use xlink:href="#d"/><use xlink:href="#d"/></g><g transform="translate(-25 -21)"><use fill="#DBDFE1" xlink:href="#e"/><use xlink:href="#e"/><use xlink:href="#e"/></g><g transform="translate(-25 -21)"><use fill="#DBDFE1" xlink:href="#f"/><use xlink:href="#f"/><use xlink:href="#f"/></g><g transform="translate(-25 -21)"><use fill="#DBDFE1" xlink:href="#g"/><use xlink:href="#g"/><use xlink:href="#g"/></g><g transform="translate(-25 -21)"><use fill="#DBDFE1" xlink:href="#h"/><use xlink:href="#h"/><use xlink:href="#h"/></g><g transform="translate(-25 -21)"><use fill="#DBDFE1" xlink:href="#i"/><use xlink:href="#i"/><use xlink:href="#i"/></g><g transform="translate(-25 -21)"><use fill="#DBDFE1" xlink:href="#j"/><use xlink:href="#j"/><use xlink:href="#j"/></g><g transform="translate(-25 -21)"><use fill="#DBDFE1" xlink:href="#k"/><use xlink:href="#k"/><use xlink:href="#k"/></g><g transform="translate(-25 -21)"><use fill="#DBDFE1" xlink:href="#l"/><use xlink:href="#l"/><use xlink:href="#l"/></g><g transform="translate(-25 -21)"><use fill="#DBDFE1" xlink:href="#m"/><use xlink:href="#m"/><use xlink:href="#m"/></g><g transform="translate(-25 -21)"><use fill="#DBDFE1" xlink:href="#n"/><use xlink:href="#n"/><use xlink:href="#n"/></g><g transform="translate(-25 -21)"><use fill="#DBDFE1" xlink:href="#o"/><use xlink:href="#o"/><use xlink:href="#o"/><use xlink:href="#o"/><use xlink:href="#o"/><use xlink:href="#o"/><use xlink:href="#o"/></g></g></svg>