<svg width="226" height="96" viewBox="0 0 226 96" xmlns="http://www.w3.org/2000/svg"><g fill="#fff" fill-rule="evenodd"><path d="M107.5 49.3l1.7.4c-.3 1.4-1 2.4-1.9 3.1-.9.7-2 1.1-3.3 1.1-1.4 0-2.4-.3-3.3-.8-.8-.5-1.5-1.3-1.9-2.4-.4-1-.7-2.2-.7-3.4 0-1.3.2-2.4.7-3.4.5-1 1.2-1.7 2.1-2.2.9-.5 1.9-.8 3-.8 1.3 0 2.3.3 3.2 1 .9.6 1.5 1.5 1.8 2.7l-1.6.4c-.3-.9-.7-1.6-1.3-2-.6-.4-1.2-.6-2.1-.6-1 0-1.8.2-2.4.7-.6.5-1.1 1.1-1.4 1.9-.3.8-.4 1.6-.4 2.4 0 1.1.2 2 .5 2.8.3.8.8 1.4 1.4 1.8.7.4 1.4.6 2.1.6.9 0 1.7-.3 2.4-.8.8-.7 1.2-1.5 1.4-2.5zM111.5 53.7V41.2h1.7v12.5h-1.7zM119.3 53.7V42.6h-4.1v-1.5h9.9v1.5H121v11.1h-1.7zM130.3 53.7v-5.3l-4.8-7.2h2L130 45c.5.7.9 1.4 1.3 2.1.4-.7.8-1.4 1.4-2.2l2.4-3.7h1.9l-5 7.2v5.3h-1.7zM101.7 70.1l2.5.8c-.4 1.4-1 2.4-1.9 3-.9.7-2 1-3.3 1-1.7 0-3-.6-4.1-1.7-1.1-1.1-1.6-2.7-1.6-4.7 0-2.1.5-3.7 1.6-4.9 1.1-1.2 2.5-1.7 4.2-1.7 1.5 0 2.8.5 3.7 1.4.6.5 1 1.3 1.3 2.3l-2.5.6c-.1-.7-.5-1.2-.9-1.5-.5-.4-1-.6-1.7-.6-.9 0-1.7.3-2.3 1-.6.7-.9 1.7-.9 3.2 0 1.6.3 2.7.9 3.4.6.7 1.3 1 2.2 1 .7 0 1.3-.2 1.7-.6.5-.4.9-1.1 1.1-2zM106.3 74.7V62.2h2.5v4.9h5v-4.9h2.5v12.5h-2.5v-5.5h-5v5.5h-2.5zM118.9 74.7V62.2h2.5v12.5h-2.5zM123.8 74.7V62.2h5.3c1.3 0 2.3.1 2.9.3.6.2 1.1.6 1.5 1.2.4.6.5 1.2.5 2 0 .9-.3 1.7-.8 2.3-.6.6-1.4 1-2.5 1.2.5.3 1 .7 1.4 1.1.4.4.8 1.1 1.4 2l1.5 2.4h-3l-1.8-2.7c-.7-1-1.1-1.6-1.3-1.8-.2-.3-.5-.4-.8-.5-.3-.1-.7-.1-1.3-.1h-.5v5.2h-2.5v-.1zm2.5-7.2h1.9c1.2 0 2-.1 2.3-.2.3-.1.5-.3.7-.5.2-.2.3-.6.3-.9 0-.4-.1-.8-.3-1-.2-.3-.5-.4-1-.5h-3.8v3.1h-.1zM135.9 68.5c0-1.3.2-2.3.6-3.2.3-.6.7-1.2 1.2-1.7s1-.9 1.6-1.1c.8-.3 1.7-.5 2.7-.5 1.8 0 3.3.6 4.4 1.7 1.1 1.1 1.7 2.7 1.7 4.8 0 2-.5 3.6-1.7 4.7-1.1 1.1-2.6 1.7-4.4 1.7-1.9 0-3.3-.6-4.4-1.7-1.1-1.1-1.7-2.7-1.7-4.7zm2.6-.1c0 1.4.3 2.5 1 3.2.7.7 1.5 1.1 2.5 1.1s1.8-.4 2.5-1.1c.6-.7 1-1.8 1-3.3 0-1.4-.3-2.5-.9-3.2-.6-.7-1.5-1.1-2.5-1.1s-1.9.4-2.5 1.1c-.7.8-1.1 1.9-1.1 3.3zM150.1 74.7V62.2h4.1c1.5 0 2.5.1 3 .2.7.2 1.3.6 1.8 1.2s.7 1.4.7 2.4c0 .8-.1 1.4-.4 1.9-.3.5-.6.9-1.1 1.2-.4.3-.9.5-1.3.6-.6.1-1.5.2-2.6.2h-1.7v4.7h-2.5v.1zm2.5-10.4v3.6h1.4c1 0 1.7-.1 2-.2.3-.1.6-.3.8-.6.2-.3.3-.6.3-1 0-.5-.1-.8-.4-1.1-.3-.3-.6-.5-1-.6-.3-.1-.9-.1-1.8-.1h-1.3zM161.8 74.7V62.2h5.3c1.3 0 2.3.1 2.9.3.6.2 1.1.6 1.5 1.2.4.6.5 1.2.5 2 0 .9-.3 1.7-.8 2.3-.6.6-1.4 1-2.5 1.2.5.3 1 .7 1.4 1.1.4.4.8 1.1 1.4 2l1.5 2.4h-3l-1.8-2.7c-.7-1-1.1-1.6-1.3-1.8-.2-.3-.5-.4-.8-.5-.3-.1-.7-.1-1.3-.1h-.5v5.2h-2.5v-.1zm2.5-7.2h1.9c1.2 0 2-.1 2.3-.2.3-.1.5-.3.7-.5.2-.3.3-.6.3-.9 0-.4-.1-.8-.3-1-.2-.3-.5-.4-1-.5h-3.8v3.1h-.1zM185.7 74.7h-2.8l-1.1-2.8h-5l-1 2.8h-2.7l4.9-12.5h2.7l5 12.5zm-4.7-5l-1.7-4.7-1.7 4.7h3.4zM195.1 70.1l2.5.8c-.4 1.4-1 2.4-1.9 3-.9.7-2 1-3.3 1-1.7 0-3-.6-4.1-1.7-1.1-1.1-1.6-2.7-1.6-4.7 0-2.1.5-3.7 1.6-4.9 1.1-1.2 2.5-1.7 4.2-1.7 1.5 0 2.8.5 3.7 1.4.6.5 1 1.3 1.3 2.3l-2.5.6c-.1-.7-.5-1.2-.9-1.5-.5-.4-1-.6-1.7-.6-.9 0-1.7.3-2.3 1-.6.7-.9 1.7-.9 3.2 0 1.6.3 2.7.9 3.4.6.7 1.3 1 2.2 1 .7 0 1.3-.2 1.7-.6.5-.4.8-1.1 1.1-2zM202.5 74.7V64.3h-3.7v-2.1h10v2.1H205v10.4h-2.5zM210.3 74.7V62.2h2.5v12.5h-2.5zM223.3 70.1l2.5.8c-.4 1.4-1 2.4-1.9 3-.9.7-2 1-3.3 1-1.7 0-3-.6-4.1-1.7-1.1-1.1-1.6-2.7-1.6-4.7 0-2.1.5-3.7 1.6-4.9 1.1-1.2 2.5-1.7 4.2-1.7 1.5 0 2.8.5 3.7 1.4.6.5 1 1.3 1.3 2.3l-2.5.6c-.1-.7-.5-1.2-.9-1.5-.5-.4-1-.6-1.7-.6-.9 0-1.7.3-2.3 1-.6.7-.9 1.7-.9 3.2 0 1.6.3 2.7.9 3.4.6.7 1.3 1 2.2 1 .7 0 1.3-.2 1.7-.6.5-.4.9-1.1 1.1-2zM88.1 91.3l1.7.4c-.3 1.4-1 2.4-1.9 3.1-.9.7-2 1.1-3.3 1.1-1.4 0-2.4-.3-3.3-.8-.8-.5-1.5-1.3-1.9-2.4-.4-1-.7-2.2-.7-3.4 0-1.3.2-2.4.7-3.4.5-1 1.2-1.7 2.1-2.2.9-.5 1.9-.8 3-.8 1.3 0 2.3.3 3.2 1 .9.6 1.5 1.5 1.8 2.7l-1.6.4c-.3-.9-.7-1.6-1.3-2-.6-.4-1.2-.6-2.1-.6-1 0-1.8.2-2.4.7-.6.5-1.1 1.1-1.4 1.9-.3.8-.4 1.6-.4 2.4 0 1.1.2 2 .5 2.8.3.8.8 1.4 1.4 1.8.7.4 1.4.6 2.1.6.9 0 1.7-.3 2.4-.8.7-.6 1.1-1.4 1.4-2.5zM90.4 95.7l4.8-12.5H97l5.1 12.5h-1.9l-1.5-3.8h-5.2l-1.4 3.8h-1.7zm3.6-5.1h4.2l-1.3-3.5c-.4-1.1-.7-1.9-.9-2.6-.2.8-.4 1.6-.7 2.4L94 90.6zM103.5 95.7V83.2h5.6c1.1 0 2 .1 2.5.3.6.2 1 .6 1.4 1.2.3.6.5 1.2.5 1.9 0 .9-.3 1.6-.9 2.2-.6.6-1.5 1-2.7 1.2.4.2.8.4 1 .6.5.4.9 1 1.4 1.7l2.2 3.4h-2.1l-1.7-2.6c-.5-.8-.9-1.3-1.2-1.7-.3-.4-.6-.7-.8-.8-.2-.2-.5-.3-.8-.3-.2 0-.5-.1-.9-.1h-1.9v5.6h-1.6v-.1zm1.6-7h3.6c.8 0 1.4-.1 1.8-.2.4-.2.8-.4 1-.8.2-.3.3-.7.3-1.1 0-.6-.2-1.1-.6-1.5-.4-.4-1.1-.6-2-.6h-4v4.2h-.1zM116.1 95.7V83.2h9.1v1.5h-7.4v3.8h6.9V90h-6.9v4.3h7.7v1.5h-9.4v-.1z"/><g><path d="M47.042 46.7h-.036v.75h.036M47.235 13.646h.375c0-.39-.023-.78-.035-1.146l-.013-.363H47.2c-6.193 0-11.986 1.683-16.97 4.596l-.556.324.556.324c5.222 3.04 9.537 7.452 12.42 12.768l.325.597.333-.592c2.743-4.877 4.304-10.51 4.304-16.507h-.752c0 5.866-1.525 11.372-4.207 16.14l.327.184.33-.18c-2.95-5.437-7.364-9.948-12.703-13.057l-.188.324.188.324c4.876-2.848 10.537-4.493 16.593-4.493v-.375l-.374.012c.012.38.035.763.035 1.12h.375v.002zM30.417 42.652l.187-.325c-5.185-2.98-9.478-7.332-12.41-12.553l-.332-.59-.324.594c-2.622 4.803-4.11 10.303-4.11 16.166 0 .39.025.78.037 1.146l.012.362h.363c6.107 0 11.827-1.634 16.764-4.474l.565-.325-.566-.325-.187.324-.187-.325C25.402 45.104 19.813 46.7 13.84 46.7v.376l.375-.012c-.013-.38-.036-.763-.036-1.12 0-5.736 1.453-11.11 4.016-15.807l-.33-.18-.326.184c3 5.34 7.387 9.79 12.69 12.837l.187-.325-.187-.325.187.325z"/><path d="M42.98 29.97l-.328-.184c-2.92 5.22-7.224 9.56-12.42 12.54l-.568.326.567.325c4.95 2.84 10.67 4.474 16.776 4.474h.363l.01-.36c.013-.367.037-.757.037-1.147 0-5.85-1.487-11.35-4.11-16.153l-.324-.596-.33.592.326.183-.33.18c2.563 4.695 4.017 10.07 4.017 15.793 0 .358-.023.74-.036 1.12l.376.013V46.7c-5.973 0-11.562-1.596-16.402-4.373l-.187.325.187.325c5.315-3.048 9.716-7.485 12.703-12.825l-.328-.183-.33.18.33-.18zM42.316 63.05l-.322-.19c-2.86 4.813-6.926 8.82-11.754 11.645l-.553.323.554.323c4.986 2.915 10.78 4.586 16.96 4.598h.388l-.013-.388c-.208-6.033-1.976-11.666-4.938-16.506l-.325-.53-.317.534.32.192-.32.195c2.897 4.732 4.626 10.238 4.83 16.14l.374-.012v-.375c-6.046-.012-11.706-1.645-16.582-4.493l-.19.323.19.323c4.937-2.888 9.093-6.983 12.02-11.91l-.322-.19-.32.195.32-.195z"/><path d="M42.316 63.05l.322.193c2.84-4.744 4.548-10.256 4.743-16.155l.014-.388h-.39c-6.105.013-11.825 1.646-16.773 4.475l-.567.325.568.326c4.817 2.766 8.87 6.7 11.767 11.42l.324.528.32-.53-.324-.194.32-.196c-2.962-4.828-7.107-8.85-12.032-11.68l-.187.326.186.325c4.84-2.766 10.43-4.362 16.404-4.375v-.375l-.376-.012c-.19 5.77-1.858 11.156-4.636 15.793l.322.194.32-.196-.32.196z"/><path d="M13.84 47.076l-.374.013c.195 5.898 1.902 11.41 4.743 16.165l.316.532.324-.528c2.896-4.722 6.95-8.668 11.754-11.434l.566-.326-.566-.324c-4.937-2.828-10.656-4.462-16.762-4.475h-.39l.014.39.375-.014v.375c5.974.014 11.563 1.61 16.39 4.376l.188-.325-.187-.324c-4.912 2.828-9.056 6.863-12.02 11.69l.32.196.323-.192c-2.777-4.65-4.446-10.036-4.637-15.806l-.375.012v.375-.374zM51.696 29.62l-.326-.185c-2.744 4.877-4.305 10.51-4.305 16.508 0 .382.012.76.024 1.133l.012.367.367-.004c6.118-.074 11.85-1.78 16.774-4.694l.545-.322-.545-.324c-5.127-3.04-9.37-7.416-12.22-12.66l-.323-.596-.332.59.326.185-.33.178c2.915 5.365 7.254 9.838 12.496 12.947l.19-.323-.19-.322c-4.816 2.85-10.417 4.517-16.402 4.59l.005.374.375-.012c-.013-.373-.024-.743-.024-1.11 0-5.865 1.525-11.37 4.207-16.14l-.327-.183-.33.178.33-.18z"/><path d="M47.042 47.076v.375c.122 0 .255.013.422.014h.375V46.657l-.408.035c-.125.01-.244.01-.39.01v.75-.376.375c.144 0 .29.002.454-.013l-.032-.373h-.375v.024h.374v-.375c-.122 0-.255-.012-.422-.013v.75-.374zM52.36 63.388l-.322-.193c-2.84 4.756-4.535 10.268-4.73 16.154l-.014.392.394-.005c6.032-.085 11.68-1.743 16.556-4.584l.556-.324-.557-.325c-4.73-2.753-8.714-6.65-11.563-11.312l-.323-.53-.317.533.32.192-.32.195c2.913 4.768 6.984 8.753 11.825 11.57l.188-.325-.19-.324c-4.767 2.778-10.284 4.4-16.187 4.482l.006.375.375.014c.19-5.76 1.847-11.146 4.623-15.795l-.32-.192-.32.195.32-.195zM64.053 51.73l-.19.322c4.755 2.825 8.737 6.795 11.562 11.54l.317.532.324-.528c2.963-4.828 4.742-10.462 4.95-16.495l.013-.392-.394.005c-6.12.085-11.85 1.78-16.775 4.693l-.543.322.544.323.193-.32.19.322c4.816-2.85 10.417-4.506 16.403-4.59l-.005-.374-.374-.013c-.202 5.9-1.942 11.407-4.84 16.128l.32.196.322-.192c-2.89-4.854-6.962-8.912-11.825-11.8l-.19.322.19.322-.19-.322z"/><path d="M64.053 51.73l.19-.323C59.32 48.493 53.59 46.8 47.47 46.714l-.394-.005.013.392c.207 6.033 1.986 11.655 4.95 16.482l.323.528.316-.532c2.825-4.73 6.82-8.702 11.563-11.527l.543-.324-.543-.322-.19.322-.19-.322c-4.853 2.89-8.937 6.947-11.825 11.787l.32.193.32-.197c-2.896-4.72-4.637-10.213-4.84-16.114l-.374.013-.005.374c5.985.083 11.586 1.74 16.4 4.59l.193-.324-.19-.322.19.322zM80.642 47.064l.375.012c.012-.373.024-.75.024-1.133 0-6.01-1.572-11.643-4.315-16.52l-.332-.59-.324.595C73.22 34.673 68.987 39.06 63.86 42.1l-.545.323.545.322c4.926 2.914 10.656 4.62 16.775 4.693l.368.004.012-.367-.375-.01.005-.376c-5.985-.073-11.586-1.74-16.402-4.59l-.19.323.19.323c5.242-3.11 9.57-7.595 12.483-12.96l-.33-.178-.326.184c2.682 4.768 4.22 10.273 4.22 16.15 0 .366-.013.736-.024 1.11l.374.012.005-.375-.005.374zM51.696 29.62l.327.182c2.884-5.16 7.128-9.453 12.23-12.42l.556-.324-.556-.325c-4.876-2.853-10.535-4.51-16.568-4.584l-.367-.005-.013.367c-.012.357-.05.735-.05 1.133 0 5.85 1.488 11.35 4.11 16.153l.324.596.332-.592-.326-.183.33-.18c-2.563-4.697-4.018-10.072-4.018-15.795 0-.35.035-.72.05-1.11l-.376-.01-.005.374c5.9.07 11.43 1.69 16.198 4.48l.19-.324-.19-.324c-5.218 3.036-9.558 7.424-12.508 12.703l.33.184.328-.18-.33.18z"/><path d="M80.663 45.937h-.5c0 9.094-3.686 17.322-9.644 23.28-5.96 5.96-14.19 9.644-23.28 9.644-9.095 0-17.323-3.683-23.283-9.642-5.958-5.96-9.643-14.188-9.643-23.28 0-9.094 3.685-17.32 9.643-23.28 5.96-5.958 14.188-9.643 23.282-9.643 9.092 0 17.32 3.684 23.28 9.643 5.957 5.96 9.642 14.186 9.643 23.28h1c0-18.735-15.188-33.922-33.924-33.922-18.738 0-33.925 15.187-33.926 33.92 0 18.737 15.188 33.925 33.925 33.925 18.734 0 33.922-15.187 33.923-33.923h-.5z"/><path d="M80.683 21.453c5.425 7.11 8.647 15.99 8.647 25.625 0 11.682-4.733 22.252-12.388 29.906S58.716 89.37 47.037 89.37c-17.234 0-32.06-10.305-38.65-25.092l-.685.306C14.41 79.632 29.5 90.12 47.038 90.12c23.77 0 43.043-19.27 43.043-43.042 0-9.803-3.278-18.844-8.8-26.08l-.597.455zM5.324 56.123l-2.858.727c-.134.033-.253.078-.358.137-.105.057-.188.137-.248.238-.05.084-.086.195-.11.336-.02.142-.005.32.05.542.065.252.2.53.404.836l.16.207.204.22.22.206.208.173 3.052-.775.125.494-5.567 1.414-.127-.496 1.94-.492c-.12-.113-.23-.225-.335-.334-.104-.11-.2-.227-.287-.348-.228-.318-.387-.652-.475-1-.127-.502-.088-.918.117-1.25.094-.152.21-.275.352-.37.14-.1.32-.175.54-.23l2.867-.728.124.495zM4.564 51.242l-.198.193-.17.117c.113.11.21.23.293.36.08.13.15.26.205.394.055.13.098.258.13.377.03.12.052.227.064.32.045.347.05.643.01.89-.04.246-.108.45-.206.612-.098.162-.218.285-.36.37-.144.083-.296.136-.457.157-.303.04-.564-.004-.786-.13-.22-.128-.412-.327-.575-.6-.163-.27-.308-.606-.433-1.008s-.245-.854-.357-1.362l-.022.004c-.16.02-.3.06-.414.11-.116.053-.207.134-.274.242-.068.108-.11.25-.13.42-.02.172-.012.385.022.64.026.2.065.375.115.527.05.153.092.262.125.327l.06.11-.513.12-.056-.14c-.032-.086-.07-.21-.114-.373-.044-.164-.078-.337-.103-.517-.082-.615-.022-1.08.18-1.396.2-.315.533-.504.998-.566l2.052-.272.208-.035.135-.048.112-.085.137-.15.233-.26.087.652zm-2.348.627c.11.496.223.92.333 1.267.11.348.228.63.35.844.124.216.258.368.404.454.146.088.312.12.498.094l.24-.08c.085-.043.162-.12.23-.23.067-.106.116-.253.145-.438.03-.185.025-.428-.015-.727-.01-.078-.03-.176-.062-.293-.03-.117-.077-.24-.14-.37-.06-.128-.14-.253-.235-.374-.095-.12-.215-.23-.357-.326l-1.392.18zM.918 46.884c-.12.117-.202.207-.247.268l-.1.165-.064.22c-.015.082-.02.178-.017.285.002.114.02.236.05.37.032.13.084.274.158.43.137.263.31.514.52.754l3.22-.1.016.517-4.3.133-.016-.517.488-.01c-.072-.09-.136-.18-.193-.27-.057-.09-.11-.185-.157-.287-.074-.15-.137-.31-.188-.476-.052-.166-.08-.342-.087-.53C0 47.72.005 47.6.02 47.48c.016-.122.05-.24.1-.355l.136-.252c.055-.078.14-.184.253-.315l.408.326zM4.895 39.978l-3.09-.318c-.11-.012-.217-.012-.315 0s-.19.05-.275.11c-.064.047-.124.12-.178.215-.055.096-.09.232-.11.41-.02.21.01.45.097.722.04.138.097.285.17.44.073.157.167.32.284.49l3.17.328-.053.507-3.184-.328c-.122-.013-.224-.007-.305.017l-.222.13c-.066.063-.12.14-.165.232-.044.092-.074.21-.088.352-.01.098-.008.212.006.342.014.13.045.27.094.418.04.143.098.292.173.445.075.152.17.308.283.463l3.162.326-.053.514-4.28-.44.053-.516.52.06c-.083-.146-.154-.286-.212-.418-.058-.132-.105-.26-.143-.383-.047-.163-.078-.316-.09-.458-.012-.144-.012-.278 0-.406.02-.186.063-.353.13-.5.068-.146.15-.27.25-.374l.2-.158.214-.104c-.19-.312-.324-.6-.4-.866-.092-.316-.124-.615-.095-.894.023-.226.077-.418.16-.578.083-.16.19-.29.32-.39.123-.097.262-.162.416-.196.155-.033.315-.042.482-.024l3.125.322-.05.506zM5.04 33.845c.235.16.43.36.58.6.152.24.252.523.3.846.05.324.02.687-.083 1.087-.1.387-.246.71-.438.97-.193.262-.415.463-.665.605-.25.14-.52.227-.807.256-.288.03-.575.008-.86-.066-.345-.09-.635-.23-.874-.42-.238-.19-.42-.417-.55-.677-.13-.26-.206-.543-.23-.85-.024-.307.004-.62.087-.94.084-.32.21-.607.38-.864.172-.255.377-.464.618-.625.24-.162.51-.27.812-.32.3-.052.623-.034.967.056.272.07.526.184.762.345zm-.89.147c-.263-.068-.512-.083-.746-.044-.234.04-.446.12-.636.244s-.352.287-.486.49c-.133.2-.234.433-.302.696-.068.262-.093.516-.075.76.018.243.08.465.186.666.107.2.253.375.44.52.185.148.41.256.67.324.22.057.442.075.667.054.224-.02.435-.086.63-.196.197-.11.372-.268.525-.475.153-.206.27-.467.352-.782.08-.305.102-.584.068-.838-.034-.253-.11-.474-.23-.663-.118-.188-.27-.346-.453-.473-.185-.126-.39-.22-.613-.277l.002-.005zM7.922 29.997L5.18 28.91c-.128-.05-.252-.083-.37-.098-.12-.015-.233 0-.342.048-.09.043-.188.115-.288.216-.1.1-.193.256-.276.467-.096.243-.15.547-.163.914-.003.078 0 .165.01.262.008.095.02.193.038.292.016.1.036.197.06.293.022.097.044.184.066.26l2.928 1.16-.19.482-4-1.584.19-.48.095.04.21.092.223.1c-.076-.33-.113-.645-.112-.942 0-.392.067-.752.198-1.083.192-.485.47-.803.83-.95.165-.068.332-.1.502-.096.17.004.362.048.572.13l2.75 1.09-.188.473zM10.124 27.223c.077.097.157.212.24.345.082.133.145.29.19.47.045.174.06.365.043.57-.018.207-.088.427-.213.662-.06.113-.122.21-.184.292l-.186.215-.21.193c-.073.053-.18.12-.317.204l-.27-.437c.118-.065.21-.12.276-.167l.18-.143.146-.17.135-.216c.167-.312.208-.606.124-.88-.058-.196-.17-.403-.334-.62l-.533-.666-4.797.35.28-.528 2.253-.16 1.887-.137c-.186-.228-.37-.455-.55-.682-.182-.227-.362-.45-.542-.668l-1.31-1.632.256-.483 3.434 4.288zM11.472 24.625l-.24.38-1.15-1.086.3-.476 1.09 1.18zM14.645 17.27c.144.248.234.512.272.794.038.282.013.574-.077.878-.09.304-.257.604-.502.9-.17.204-.343.365-.518.482-.175.117-.343.208-.505.272l-.196.062-.183.046.34.273-.33.398-4.417-3.67.326-.393 1.427 1.186c.02-.292.082-.566.19-.823.107-.257.25-.493.43-.71.224-.268.47-.476.74-.624.27-.146.546-.232.83-.256.283-.024.564.01.844.1.28.093.54.24.783.44.22.183.4.398.545.646zm-.872-.253c-.186-.154-.385-.27-.6-.344-.213-.075-.43-.104-.652-.087-.222.017-.44.083-.653.197-.214.114-.412.28-.595.5-.183.22-.318.458-.406.715-.09.256-.12.56-.095.906l1.69 1.404.103-.015.12-.02.182-.042.202-.062c.14-.05.286-.126.44-.225.156-.098.31-.238.46-.42.19-.228.318-.457.386-.69.068-.23.09-.457.064-.677-.025-.22-.095-.427-.21-.622-.113-.194-.26-.365-.437-.513l.003-.003zM18.735 15.142c-.11-.01-.203-.024-.273-.045l-.195-.07c-.02.157-.06.307-.118.45-.06.143-.125.276-.2.398-.073.122-.15.23-.23.327-.078.096-.15.176-.22.24-.252.242-.49.42-.712.532-.222.113-.428.178-.616.194-.188.016-.36-.01-.51-.075-.153-.066-.285-.158-.397-.276-.21-.22-.33-.458-.357-.712-.027-.253.02-.526.145-.817.124-.292.31-.606.56-.943.25-.337.548-.7.893-1.09l-.016-.016c-.112-.12-.223-.21-.333-.27-.11-.063-.23-.09-.356-.08-.126.01-.265.057-.416.142-.15.085-.318.216-.503.393-.145.14-.265.274-.36.404-.093.13-.156.227-.19.292l-.054.114-.4-.344.082-.128c.05-.076.13-.18.235-.31.106-.132.225-.26.357-.387.45-.428.86-.654 1.234-.676.374-.02.722.137 1.045.476l1.427 1.498.15.147.12.082.134.04.202.023.35.035-.477.452zm-1.888-1.53c-.337.382-.613.72-.83 1.016-.217.295-.375.555-.476.78-.1.227-.144.424-.128.594.016.17.087.322.217.458l.205.146c.086.044.193.062.32.052.127-.01.275-.056.442-.14.168-.086.36-.232.578-.44.057-.053.124-.127.2-.222.078-.094.15-.204.218-.33.068-.125.123-.263.164-.412.042-.15.06-.31.054-.48l-.963-1.022zM16.76 9.33l3.627 4.455-.396.322-3.625-4.455zM24.097 11.09c-.108-.026-.196-.055-.263-.087l-.18-.1c-.046.152-.11.294-.188.426-.08.132-.165.252-.257.36-.094.11-.187.205-.28.288-.092.082-.177.15-.254.203-.288.2-.55.337-.788.415-.237.078-.45.11-.64.096-.188-.013-.353-.063-.492-.153-.14-.09-.256-.2-.348-.335-.174-.25-.254-.504-.24-.76.012-.253.102-.515.27-.784.167-.27.4-.55.702-.844.3-.294.65-.606 1.05-.937l-.012-.018c-.093-.135-.188-.24-.288-.32-.1-.077-.212-.122-.34-.133-.126-.01-.27.014-.433.075-.162.06-.348.164-.56.31-.166.115-.305.23-.418.343-.114.114-.19.2-.234.26l-.072.104-.34-.403.1-.115c.062-.066.155-.156.28-.27.126-.113.264-.222.414-.326.51-.353.953-.51 1.325-.475.372.037.69.248.958.633l1.177 1.703.126.17.104.098.127.06.194.055.34.087-.54.374zM22.47 9.286c-.392.325-.717.616-.977.873s-.457.49-.592.697c-.134.208-.207.396-.22.565-.01.17.037.332.144.486l.18.176c.078.057.18.09.308.102.127.01.28-.012.46-.07.178-.057.39-.172.638-.343.065-.043.143-.106.233-.187.09-.08.18-.178.266-.292.085-.112.16-.24.225-.38s.107-.295.128-.465l-.792-1.16zM28.337 8.714L26.95 6.11c-.063-.122-.136-.227-.217-.315-.08-.088-.178-.15-.29-.185-.1-.026-.218-.033-.36-.022-.142.01-.313.07-.513.177-.23.123-.47.32-.715.59l-.165.206-.16.25-.146.26-.118.244 1.48 2.78-.457.243-2.023-3.797.457-.243.045.093.1.206.105.22c.158-.3.333-.565.525-.79.255-.298.54-.53.852-.697.46-.247.877-.31 1.25-.19.168.056.316.14.443.254.127.114.245.27.35.47l1.39 2.61-.448.24zM33.182 6.045c-.068.177-.16.344-.273.5-.115.154-.26.298-.437.43-.176.132-.393.248-.65.348-.28.11-.57.175-.867.2-.297.022-.583-.01-.855-.1-.27-.09-.522-.242-.75-.454-.228-.214-.414-.504-.557-.87-.14-.36-.196-.694-.17-1.006.028-.312.112-.594.254-.848.142-.253.33-.473.564-.66.235-.186.488-.332.76-.438.426-.166.81-.227 1.15-.182.34.045.687.176 1.04.393l-.32.4c-.132-.084-.263-.154-.39-.208-.126-.054-.256-.088-.39-.103-.13-.016-.272-.01-.422.013-.15.024-.314.07-.493.14-.22.086-.422.204-.604.354s-.328.325-.438.524c-.11.2-.175.42-.194.663-.02.243.024.5.13.77.11.286.254.512.434.68.18.17.375.29.588.36.212.07.437.095.672.075.235-.02.463-.073.684-.16.202-.078.37-.167.506-.267s.25-.208.34-.326c.093-.118.165-.246.216-.385.05-.14.092-.287.122-.44l.51.046c-.036.19-.09.372-.158.55zM34.1 4.31c.093.282.222.507.385.675.164.17.344.292.54.37.197.08.398.12.605.122.207.002.403-.02.59-.07.2-.053.403-.125.61-.217.21-.093.403-.187.584-.283.18-.096.338-.185.472-.27.134-.082.224-.14.27-.173l.16.462c-.264.16-.494.293-.69.398-.196.105-.41.21-.64.316-.23.106-.44.184-.63.234-.29.076-.59.104-.895.085-.305-.02-.595-.106-.87-.26-.238-.135-.45-.322-.63-.56-.183-.237-.32-.538-.416-.9-.086-.33-.105-.64-.057-.933.048-.293.155-.56.32-.802.156-.224.348-.42.577-.586.23-.168.508-.294.837-.38.292-.076.582-.092.87-.048.29.044.565.146.826.308.214.137.41.326.587.564.177.24.317.554.42.945l-3.824 1zM37.277 3c-.076-.175-.18-.335-.31-.482-.13-.146-.28-.267-.448-.36-.17-.093-.354-.155-.553-.184-.2-.03-.405-.017-.62.04-.243.063-.457.16-.64.286-.184.127-.333.274-.45.442-.116.168-.198.348-.245.538-.047.19-.056.38-.026.572l3.29-.86.002.007zM39.595 5.683l-.444.08.028-1.582.553-.097-.135 1.6zM49.116 4.398l-.385.006-1.11-1.963c-.146-.268-.297-.534-.45-.798-.15-.264-.3-.53-.447-.798-.14.273-.276.542-.412.805-.135.262-.273.53-.41.804L44.85 4.467l-.377.006L42.085.21l.568-.01 1.096 1.964c.146.273.296.544.45.813.15.27.303.54.456.813.306-.602.614-1.202.925-1.8.312-.6.632-1.217.96-1.853l.348-.005 1.12 1.978c.15.273.303.543.452.81.15.266.3.534.453.802l.427-.828.42-.82L50.797.07l.57-.01-2.252 4.338zM52.356 2.72c-.027.296.002.554.084.774.083.22.2.405.348.556.15.15.316.268.506.353.188.084.377.142.567.17.205.033.422.048.648.046.228-.003.443-.01.648-.027.203-.015.384-.034.54-.057.155-.023.26-.04.317-.05l-.04.487c-.304.042-.568.07-.79.09-.223.017-.46.028-.713.033-.253.005-.477-.007-.672-.038-.297-.047-.58-.14-.854-.28-.272-.14-.504-.335-.693-.584-.165-.22-.283-.476-.354-.767-.072-.29-.078-.62-.02-.99.052-.337.158-.63.32-.878.16-.25.365-.452.615-.608.232-.143.487-.245.763-.307.277-.062.584-.066.92-.013.297.046.568.148.816.304.246.156.457.36.632.612.143.212.248.463.314.752.066.29.068.635.006 1.034l-3.906-.613zm3.438.07c0-.19-.03-.378-.09-.565-.062-.187-.15-.356-.27-.51-.12-.154-.263-.283-.433-.39-.17-.107-.364-.177-.583-.21-.248-.04-.482-.038-.7.005-.22.043-.415.118-.59.226-.174.107-.32.24-.44.395-.118.157-.203.328-.252.515l3.36.527v.007zM58.75.117L57.402 5.7l-.495-.12L58.257 0zM60.448.574l-1.552 5.53-.49-.138 1.55-5.53zM64.31 6.578c-.185.218-.403.392-.655.522-.253.13-.537.204-.854.222-.316.018-.653-.04-1.015-.173-.25-.093-.46-.2-.63-.327-.168-.125-.31-.253-.425-.385l-.124-.164-.104-.156-.142.412-.486-.18L61.856.96l.48.176-.642 1.74c.28-.08.562-.11.84-.096.276.015.548.072.81.168.33.12.608.284.837.49.23.204.403.436.52.695.12.258.182.535.19.83.007.293-.044.588-.153.884-.098.27-.24.513-.426.73zm-.052-.906c.084-.227.125-.453.124-.68 0-.225-.046-.44-.137-.644-.09-.204-.226-.387-.404-.55-.177-.163-.4-.294-.67-.393-.268-.1-.538-.147-.81-.144-.27.003-.566.075-.886.214l-.758 2.06.05.094.06.104.098.16.127.168c.097.114.216.227.36.34.145.114.328.212.55.294.278.102.538.146.778.132.242-.014.46-.07.66-.167.2-.1.37-.234.516-.406.145-.172.257-.367.337-.585l.008.002zM65.844 6.548c-.117.272-.17.526-.16.76.01.236.06.448.156.637.094.19.217.354.37.493.153.14.315.252.486.34.185.094.385.176.6.245.218.07.426.128.624.177.2.05.377.087.53.114.157.027.263.044.32.05l-.188.452c-.305-.055-.564-.11-.78-.162-.218-.053-.446-.116-.69-.19-.24-.073-.45-.155-.625-.245-.268-.138-.51-.315-.724-.533-.216-.218-.375-.475-.48-.77-.087-.262-.12-.542-.097-.84.022-.298.12-.614.29-.948.153-.304.347-.548.577-.734.23-.187.49-.315.774-.385.265-.063.538-.08.82-.053.282.028.574.12.877.274.268.138.495.32.68.544.19.226.325.485.413.78.068.245.09.515.062.81-.028.297-.134.625-.317.985l-3.52-1.802zm3.246 1.137c.06-.18.088-.37.09-.564 0-.195-.032-.385-.097-.567-.064-.183-.16-.35-.29-.505-.13-.154-.29-.282-.488-.383-.225-.114-.447-.185-.668-.212-.22-.027-.432-.017-.63.03-.2.05-.38.128-.54.24-.163.11-.297.247-.4.41l3.026 1.547-.003.005zM69.262 10.676l2.264-3.66.434.27-2.264 3.658-.434-.268zm2.516-4.067l.506-.818.434.268-.502.81-.438-.26zM73.356 13.49l1.74-2.383c.08-.11.143-.223.187-.333.044-.11.058-.225.04-.342-.02-.1-.065-.21-.138-.333-.072-.124-.2-.252-.383-.385-.21-.154-.492-.283-.844-.387-.074-.024-.158-.043-.254-.058-.096-.015-.194-.027-.295-.036-.1-.01-.2-.015-.3-.017-.1-.002-.19-.002-.27 0l-1.856 2.543-.418-.305 2.536-3.476.418.304-.064.082-.14.18-.153.19c.34.012.653.054.94.13.38.1.712.253.998.462.423.308.66.655.714 1.042.024.176.013.347-.034.51-.047.165-.137.34-.27.522l-1.744 2.388-.41-.3zM77.15 17.667c-.235.135-.495.214-.78.238-.268.02-.54-.024-.814-.13-.275-.105-.53-.27-.77-.492-.324-.303-.562-.625-.717-.964-.065-.15-.118-.317-.157-.506-.04-.188-.062-.428-.068-.717l.518.02c-.004.19.005.365.025.52.02.154.068.32.14.495.054.124.128.253.226.387.097.133.217.268.36.403.15.14.335.262.552.363.216.1.438.142.663.124.19-.017.375-.074.553-.17.178-.096.377-.262.596-.496l.074-.08c-.217-.03-.454-.09-.71-.19-.256-.097-.52-.272-.79-.524-.2-.188-.37-.41-.507-.663-.14-.253-.225-.522-.26-.805-.036-.283-.01-.573.08-.87.09-.298.26-.582.513-.852.1-.108.22-.212.358-.313.138-.1.29-.188.462-.26.17-.075.35-.128.544-.16.19-.033.394-.032.604.002.21.034.427.106.648.215.22.11.443.268.667.477.228.212.403.43.53.657.125.225.21.466.254.723l.257-.286.378.353-2.73 2.92c-.234.25-.47.442-.703.577zm2.35-3.088c.01-.256-.033-.507-.13-.755-.095-.248-.272-.493-.53-.735-.28-.262-.555-.43-.818-.5-.263-.07-.51-.088-.736-.05-.226.036-.43.11-.604.223-.176.112-.313.223-.415.33-.19.206-.326.42-.404.645-.078.224-.107.447-.088.667.02.22.084.435.194.642.11.207.254.395.434.563.14.13.28.236.42.315.137.08.273.14.408.18.133.04.262.067.387.08.123.01.242.016.357.016l1.523-1.62z"/></g></g></svg>